<?xml version="1.0" encoding="utf-8"?>
<!-- Generator: Adobe Illustrator 20.1.0, SVG Export Plug-In . SVG Version: 6.00 Build 0)  -->
<svg version="1.1" id="Layer_1" xmlns="http://www.w3.org/2000/svg" xmlns:xlink="http://www.w3.org/1999/xlink" x="0px" y="0px"
	 viewBox="0 0 800 470" style="enable-background:new 0 0 800 470;" xml:space="preserve">
<style type="text/css">
	.st0{fill:#FFFFFF;}
</style>
<path class="st0" d="M790,70c0-33.1-26.9-60-60-60c-17.8,0-33.9,7.8-44.8,20.2c-1.8,1.6-285.3,285-285.3,285
	c-1.6-1.8-283.2-283.4-285-285C103.9,17.8,87.8,10,70,10c-33.1,0-60,26.9-60,60c0,17.8,7.8,33.9,20.2,44.8
	c1.6,1.8,323.2,323.4,325,325c11,12.4,27,20.2,44.8,20.2c17.8,0,33.9-7.8,44.8-20.2c1.8-1.6,323.4-323.2,325-325
	C782.2,103.9,790,87.8,790,70z"/>
</svg>
