<?xml version="1.0" encoding="utf-8"?>
<!-- Generator: Adobe Illustrator 21.0.0, SVG Export Plug-In . SVG Version: 6.00 Build 0)  -->
<svg version="1.1" id="Layer_1" xmlns="http://www.w3.org/2000/svg" xmlns:xlink="http://www.w3.org/1999/xlink" x="0px" y="0px"
	 viewBox="0 0 800 600" style="enable-background:new 0 0 800 600;" xml:space="preserve">
<style type="text/css">
	.st0{fill:#FFFFFF;}
</style>
<path class="st0" d="M760,10H40c-16.6,0-30,13.4-30,30s13.4,30,30,30h720c16.6,0,30-13.4,30-30S776.6,10,760,10z"/>
<path class="st0" d="M760,530H40c-16.6,0-30,13.4-30,30s13.4,30,30,30h720c16.6,0,30-13.4,30-30S776.6,530,760,530z"/>
<path class="st0" d="M760,270H40c-16.6,0-30,13.4-30,30s13.4,30,30,30h720c16.6,0,30-13.4,30-30S776.6,270,760,270z"/>
</svg>
