<?xml version="1.0" encoding="utf-8"?>
<!-- Generator: Adobe Illustrator 21.0.0, SVG Export Plug-In . SVG Version: 6.00 Build 0)  -->
<svg version="1.1" id="Layer_1" xmlns="http://www.w3.org/2000/svg" xmlns:xlink="http://www.w3.org/1999/xlink" x="0px" y="0px"
	 viewBox="0 0 800 600" style="enable-background:new 0 0 800 600;" xml:space="preserve">
<style type="text/css">
	.st0{fill:#FFFFFF;}
</style>
<path class="st0" d="M632.9,23.8L123.8,532.9c-11.7,11.7-11.7,30.7,0,42.4c11.7,11.7,30.7,11.7,42.4,0L675.3,66.2
	c11.7-11.7,11.7-30.7,0-42.4C663.6,12.1,644.6,12.1,632.9,23.8z"/>
<path class="st0" d="M675.3,532.9L166.2,23.8c-11.7-11.7-30.7-11.7-42.4,0s-11.7,30.7,0,42.4l509.1,509.1
	c11.7,11.7,30.7,11.7,42.4,0C687,563.6,687,544.6,675.3,532.9z"/>
</svg>
